<?xml version="1.0" encoding="UTF-8" standalone="no"?>
<!-- Created with Inkscape (http://www.inkscape.org/) -->

<svg
   width="147.65375mm"
   height="129.65659mm"
   viewBox="0 0 147.65375 129.65659"
   version="1.1"
   id="svg5"
   xmlns="http://www.w3.org/2000/svg"
   xmlns:svg="http://www.w3.org/2000/svg">
  <defs
     id="defs2" />
  <g
     id="layer1"
     style="display:none"
     transform="translate(-26.839788,-67.534186)">
    <path
       d="M 0,0"
       id="path25239" />
    <path
       id="path30390"
       style="fill:none;stroke:#000000;stroke-width:0.264583px;stroke-linecap:butt;stroke-linejoin:miter;stroke-opacity:1"
       d="m 81.312915,71.044867 3.631542,20.104341 c 2.748758,15.217222 5.497515,30.434442 8.246273,45.651652 M 28.791858,71.044868 80.807908,89.668197 146.42119,113.15975 Z m 99.811082,35.737762 -3.46837,2.94007 -35.253889,29.88402 M 170.73868,71.044863 75.442777,151.85652 M 99.759899,193.9713 C 123.41947,152.99581 147.07908,112.02034 170.73868,71.044863 Z M 77.42317,71.044867 80.807908,89.668197 99.765269,193.97441 28.791858,71.044867 Z M 99.765269,193.97441 77.42317,71.044867 l 93.31551,-4e-6 z m -9.879824,-54.377 -0.813317,-4.4735" />
    <path
       id="path30390-6"
       style="fill:none;stroke:#000000;stroke-width:0.264583px;stroke-linecap:butt;stroke-linejoin:miter;stroke-opacity:1"
       d="m 144.47815,116.52943 -19.22664,-6.90716 C 110.69864,104.39415 96.145755,99.166036 81.592886,93.937925 m 89.145794,-22.893062 -42.1363,35.735557 -53.150922,45.07699 z m -80.855346,68.570047 -0.81199,-4.47373 -8.25338,-45.472772 M 99.76527,193.97441 77.428278,71.039918 m -48.631033,0.0019 C 52.453275,112.01935 76.109274,152.99692 99.76527,193.97446 Z m 117.625785,42.118992 -17.82065,-6.38039 -99.810513,-35.735554 141.946813,-3e-6 z M 28.791867,71.044866 146.42303,113.16081 99.76527,193.97441 Z m 52.031778,18.632323 4.280823,1.532397" />
    <path
       id="path30390-5"
       style="fill:none;stroke:#000000;stroke-width:0.264583px;stroke-linecap:butt;stroke-linejoin:miter;stroke-opacity:1"
       d="m 73.297606,148.42629 15.609301,-13.18037 c 11.814873,-9.97639 23.629753,-19.95278 35.444613,-29.92916 m -24.842383,88.62236 -9.8212,-54.3695 -12.38851,-68.581935 z m -18.84339,-104.328176 4.27871,1.538264 43.490463,15.635612 M 28.668146,70.933198 146.25562,113.18269 M 170.61486,71.092249 C 123.2993,71.039267 75.983727,70.986224 28.668146,70.933198 Z M 75.238857,151.79701 89.687937,139.56962 170.61487,71.086044 99.509137,193.93912 Z M 170.61487,71.086044 75.238857,151.79701 28.668146,70.933198 Z m -42.1904,35.699276 -3.47068,2.93738" />
  </g>
  <g
     id="layer2"
     style="display:inline"
     transform="translate(-26.839788,-67.534186)">
    <path
       style="fill:#6251c6;fill-opacity:1;stroke:none;stroke-width:0.264583px;stroke-linecap:butt;stroke-linejoin:miter;stroke-opacity:1"
       d="m 26.759214,67.519628 48.631311,-3e-6 12.46147,68.564855 -14.438027,12.24356 -46.654754,-80.808412"
       id="path37532" />
    <path
       style="fill:#6251c6;fill-opacity:1;stroke:none;stroke-width:0.264583px;stroke-linecap:butt;stroke-linejoin:miter;stroke-opacity:1"
       d="m 97.824476,197.36856 -24.387298,-42.07451 53.071002,-45.16522 17.83312,6.35144 -46.516454,80.88807"
       id="path37532-6" />
    <path
       style="fill:#6251c6;fill-opacity:1;stroke:none;stroke-width:0.264583px;stroke-linecap:butt;stroke-linejoin:miter;stroke-opacity:1"
       d="M 174.62274,71.099222 150.28229,113.20084 84.686298,89.6723 81.312915,71.044867 l 93.309455,0.05414"
       id="path37532-6-7" />
    <g
       id="g48800">
      <path
         style="fill:#7216f4;fill-opacity:1;stroke:none;stroke-width:0.264583px;stroke-linecap:butt;stroke-linejoin:miter;stroke-opacity:1"
         d="m 85.715739,95.419057 6.664359,36.894123 28.662972,-24.20279 z"
         id="path38237" />
      <path
         style="fill:#7216f4;fill-opacity:1;stroke:none;stroke-width:0.377953;stroke-miterlimit:4;stroke-dasharray:none;stroke-opacity:1"
         d="M 190.5,409.42619 C 142.7875,326.7594 103.23064,258.25092 102.59586,257.18513 l -1.15414,-1.93781 91.64278,0.12634 91.64278,0.12634 23.38605,128.5 c 12.86232,70.675 23.32993,128.98156 23.26136,129.57013 -0.0847,0.72673 -8.66062,8.3081 -26.72428,23.625 -14.62977,12.40518 -26.77977,22.55024 -27,22.54459 -0.22022,-0.006 -39.43791,-67.64674 -87.15041,-150.31353 z"
         id="path48582"
         transform="scale(0.26458333)" />
      <path
         style="fill:#7216f4;fill-opacity:1;stroke:none;stroke-width:0.377953;stroke-miterlimit:4;stroke-dasharray:none;stroke-opacity:1"
         d="M 443.76226,383.02748 C 376.119,358.73871 320.60151,338.55871 320.39006,338.18304 320.17861,337.80737 317.23256,322.0875 313.84328,303.25 l -6.16232,-34.25 87.90952,-0.12639 c 48.35023,-0.0695 127.51022,-0.0695 175.91108,0 L 659.50312,269 613.83188,348 c -25.11919,43.45 -45.98864,79.0425 -46.37656,79.09444 -0.38793,0.0519 -56.04981,-19.77818 -123.69306,-44.06696 z"
         id="path48621"
         transform="scale(0.26458333)" />
      <path
         style="fill:#7216f4;fill-opacity:1;stroke:none;stroke-width:0.377953;stroke-miterlimit:4;stroke-dasharray:none;stroke-opacity:1"
         d="M 323.82225,666.17297 C 280.23501,590.9664 278.01378,587.01662 278.85991,586.22113 282.02061,583.24954 478.07926,416.75 478.4177,416.75 c 0.5228,0 66.09583,23.34686 66.38489,23.63592 0.16637,0.16637 -171.02852,298.34125 -174.2569,303.50807 l -0.87101,1.394 z"
         id="path48660"
         transform="scale(0.26458333)" />
    </g>
  </g>
</svg>
